<svg width="11" height="17" viewBox="0 0 11 17" fill="none" xmlns="http://www.w3.org/2000/svg">
<g id="Icon" opacity="0.6">
<path id="Vector" d="M9.95801 7.48813C9.95801 7.56105 9.93197 7.62875 9.87988 7.69125L5.70801 11.8475C5.65592 11.91 5.58822 11.9413 5.50488 11.9413C5.43197 11.9413 5.36426 11.91 5.30176 11.8475L1.14551 7.69125C1.08301 7.62875 1.05176 7.56105 1.05176 7.48813C1.05176 7.4048 1.08301 7.33188 1.14551 7.26938L1.58301 6.83188C1.64551 6.76938 1.71322 6.73813 1.78613 6.73813C1.86947 6.73813 1.94238 6.76938 2.00488 6.83188L5.50488 10.3319L9.02051 6.83188C9.07259 6.76938 9.1403 6.73813 9.22363 6.73813C9.29655 6.73813 9.36426 6.76938 9.42676 6.83188L9.87988 7.26938C9.93197 7.33188 9.95801 7.4048 9.95801 7.48813Z" fill="black"/>
</g>
</svg>
