<svg width="16" height="16" viewBox="0 0 16 16" fill="none" xmlns="http://www.w3.org/2000/svg">
<g id="Item &#226;&#134;&#146; Link - Search" clip-path="url(#clip0_1_825)">
<path id="Vector" d="M15.3485 13.3025L12.6403 10.5925C13.0112 10.0652 13.2991 9.4841 13.504 8.84933C13.709 8.21457 13.8114 7.54562 13.8114 6.8425C13.8114 5.94406 13.6406 5.09445 13.2991 4.29367C12.9575 3.49289 12.489 2.79709 11.8937 2.20627C11.2984 1.61545 10.6055 1.14914 9.81496 0.807343C9.01469 0.45578 8.16075 0.279999 7.25313 0.279999C6.35526 0.279999 5.5062 0.45578 4.70593 0.807343C3.90566 1.14914 3.2103 1.61545 2.61986 2.20627C2.02942 2.79709 1.56341 3.49289 1.22183 4.29367C0.870493 5.09445 0.694824 5.94406 0.694824 6.8425C0.694824 7.7507 0.870493 8.60519 1.22183 9.40598C1.56341 10.197 2.02942 10.8904 2.61986 11.4861C3.2103 12.0818 3.90566 12.5505 4.70593 12.8923C5.5062 13.2341 6.35526 13.405 7.25313 13.405C7.9558 13.405 8.62432 13.3025 9.25868 13.0974C9.89304 12.8923 10.4737 12.6042 11.0007 12.2331L13.709 14.9431C13.9334 15.1677 14.2067 15.28 14.5287 15.28C14.8508 15.28 15.1241 15.1677 15.3485 14.9431C15.573 14.7185 15.6852 14.445 15.6852 14.1228C15.6852 13.8005 15.573 13.5271 15.3485 13.3025ZM7.25313 11.53C6.60901 11.53 6.00393 11.4079 5.43788 11.1638C4.86208 10.9196 4.36435 10.5852 3.9447 10.1604C3.52504 9.73557 3.18835 9.23996 2.9346 8.67355C2.69062 8.10715 2.56862 7.4968 2.56862 6.8425C2.56862 6.19797 2.69062 5.5925 2.9346 5.02609C3.18835 4.45969 3.52504 3.96408 3.9447 3.53928C4.36435 3.11447 4.86208 2.78 5.43788 2.53586C6.00393 2.28195 6.60901 2.155 7.25313 2.155C7.907 2.155 8.51696 2.28195 9.08301 2.53586C9.64905 2.78 10.1443 3.11447 10.5689 3.53928C10.9934 3.96408 11.3277 4.45969 11.5716 5.02609C11.8156 5.5925 11.9376 6.19797 11.9376 6.8425C11.9376 7.4968 11.8156 8.10715 11.5716 8.67355C11.3277 9.23996 10.9934 9.73557 10.5689 10.1604C10.1443 10.5852 9.64905 10.9196 9.08301 11.1638C8.51696 11.4079 7.907 11.53 7.25313 11.53Z" fill="black"/>
</g>
<defs>
<clipPath id="clip0_1_825">
<rect width="15.62" height="15" fill="white" transform="matrix(1 0 0 -1 0.379883 15.28)"/>
</clipPath>
</defs>
</svg>
